<mxfile host="Electron" modified="2024-08-07T20:50:59.806Z" agent="Mozilla/5.0 (Windows NT 10.0; Win64; x64) AppleWebKit/537.36 (KHTML, like Gecko) draw.io/24.6.4 Chrome/124.0.6367.207 Electron/30.0.6 Safari/537.36" etag="GkCGHkUqirs0ayd5sA3m" version="24.6.4" type="device" pages="3">
  <diagram name="page1" id="51UBkito5awnTQ_jN5C1">
    <mxGraphModel dx="1434" dy="844" grid="1" gridSize="10" guides="1" tooltips="1" connect="1" arrows="1" fold="1" page="1" pageScale="1" pageWidth="850" pageHeight="1100" math="0" shadow="0">
      <root>
        <mxCell id="0" />
        <mxCell id="1" parent="0" />
        <mxCell id="dyKfC978DSqIkyhEUavx-2" value="https://github.com/StateSmith/StateSmith/issues/78" style="shape=note;strokeWidth=2;fontSize=14;size=20;whiteSpace=wrap;html=1;fillColor=#fff2cc;strokeColor=#d6b656;fontColor=#666600;align=left;spacingLeft=6;" parent="1" vertex="1">
          <mxGeometry x="30" y="20" width="380" height="40" as="geometry" />
        </mxCell>
        <mxCell id="3d-xzousiEgNGckSdFBJ-8" value="$initial_state" style="shape=ellipse;aspect=fixed;fillColor=#000000;resizable=1;rotatable=1;noLabel=1;editable=1;comic=0;movable=1;deletable=1;locked=0;connectable=1;" parent="1" vertex="1">
          <mxGeometry x="87.5" y="140" width="25" height="25" as="geometry" />
        </mxCell>
        <mxCell id="ClSxLSJ55C_C8lVC4yGv-4" value="EV1" style="edgeStyle=orthogonalEdgeStyle;rounded=0;orthogonalLoop=1;jettySize=auto;html=1;" parent="1" source="3d-xzousiEgNGckSdFBJ-9" target="ClSxLSJ55C_C8lVC4yGv-2" edge="1">
          <mxGeometry relative="1" as="geometry" />
        </mxCell>
        <mxCell id="3d-xzousiEgNGckSdFBJ-9" value="STATE_1" style="shape=swimlane;rotatable=0;align=center;verticalAlign=top;fontFamily=Lucida Console;startSize=30;fontSize=14;fontStyle=1;fontColor=#FAFAFA;fillColor=#545454;swimlaneFillColor=default;rounded=1;arcSize=15;absoluteArcSize=1;comic=0;STATESMITH_NOTES_VERTEX" parent="1" vertex="1">
          <mxGeometry x="40" y="200" width="120" height="90" as="geometry" />
        </mxCell>
        <mxCell id="3d-xzousiEgNGckSdFBJ-10" value="" style="fontFamily=Lucida Console;align=left;verticalAlign=top;fillColor=none;gradientColor=none;strokeColor=none;rounded=0;spacingLeft=4;resizable=0;movable=0;deletable=0;rotatable=0;autosize=1;comic=0;" parent="3d-xzousiEgNGckSdFBJ-9" vertex="1" connectable="0">
          <mxGeometry y="30" width="50" height="40" as="geometry" />
        </mxCell>
        <mxCell id="3d-xzousiEgNGckSdFBJ-13" parent="1" source="3d-xzousiEgNGckSdFBJ-8" target="3d-xzousiEgNGckSdFBJ-9" edge="1">
          <mxGeometry relative="1" as="geometry" />
        </mxCell>
        <mxCell id="ClSxLSJ55C_C8lVC4yGv-1" value="&lt;span style=&quot;color: rgb(250, 250, 250); font-family: &amp;quot;Lucida Console&amp;quot;; font-size: 14px; font-weight: 700; text-wrap: nowrap;&quot;&gt;$STATEMACHINE : MySm&lt;/span&gt;" style="rounded=1;whiteSpace=wrap;html=1;fillColor=#1ba1e2;fontColor=#ffffff;strokeColor=#006EAF;" parent="1" vertex="1">
          <mxGeometry x="30" y="80" width="210" height="35" as="geometry" />
        </mxCell>
        <mxCell id="ClSxLSJ55C_C8lVC4yGv-7" value="EV2" style="edgeStyle=orthogonalEdgeStyle;rounded=0;orthogonalLoop=1;jettySize=auto;html=1;exitX=0.5;exitY=1;exitDx=0;exitDy=0;entryX=0.5;entryY=1;entryDx=0;entryDy=0;" parent="1" source="ClSxLSJ55C_C8lVC4yGv-2" target="3d-xzousiEgNGckSdFBJ-9" edge="1">
          <mxGeometry relative="1" as="geometry" />
        </mxCell>
        <mxCell id="ClSxLSJ55C_C8lVC4yGv-2" value="STATE_2" style="shape=swimlane;rotatable=0;align=center;verticalAlign=top;fontFamily=Lucida Console;startSize=30;fontSize=14;fontStyle=1;fontColor=#FAFAFA;fillColor=#545454;swimlaneFillColor=default;rounded=1;arcSize=15;absoluteArcSize=1;comic=0;STATESMITH_NOTES_VERTEX" parent="1" vertex="1">
          <mxGeometry x="280" y="200" width="120" height="90" as="geometry" />
        </mxCell>
        <mxCell id="ClSxLSJ55C_C8lVC4yGv-3" value="" style="fontFamily=Lucida Console;align=left;verticalAlign=top;fillColor=none;gradientColor=none;strokeColor=none;rounded=0;spacingLeft=4;resizable=0;movable=0;deletable=0;rotatable=0;autosize=1;comic=0;" parent="ClSxLSJ55C_C8lVC4yGv-2" vertex="1" connectable="0">
          <mxGeometry y="30" width="50" height="40" as="geometry" />
        </mxCell>
      </root>
    </mxGraphModel>
  </diagram>
  <diagram name="page2" id="jP0XsZYPSts-ke4v4z8_">
    <mxGraphModel dx="1434" dy="844" grid="1" gridSize="10" guides="1" tooltips="1" connect="1" arrows="1" fold="1" page="1" pageScale="1" pageWidth="850" pageHeight="1100" math="0" shadow="0">
      <root>
        <mxCell id="8-8oFy19M2xyFrtWDsz8-0" />
        <mxCell id="8-8oFy19M2xyFrtWDsz8-1" parent="8-8oFy19M2xyFrtWDsz8-0" />
        <mxCell id="vniitUlIALal8oddrsry-2" value="$CONFIG : toml" style="shape=swimlane;rotatable=0;align=center;verticalAlign=top;fontFamily=Lucida Console;startSize=30;fontSize=14;fontStyle=1;swimlaneFillColor=default;html=1;rounded=1;arcSize=15;absoluteArcSize=1;fillColor=#76608a;strokeColor=#432D57;fontColor=#ffffff;" vertex="1" parent="8-8oFy19M2xyFrtWDsz8-1">
          <mxGeometry x="40" y="40" width="340" height="135" as="geometry">
            <mxRectangle x="40" y="40" width="170" height="70" as="alternateBounds" />
          </mxGeometry>
        </mxCell>
        <mxCell id="vniitUlIALal8oddrsry-3" value="" style="fontFamily=Lucida Console;align=left;verticalAlign=top;fillColor=none;gradientColor=none;strokeColor=none;rounded=0;spacingLeft=4;resizable=0;movable=0;deletable=0;rotatable=0;autosize=1;" vertex="1" connectable="0" parent="vniitUlIALal8oddrsry-2">
          <mxGeometry y="30" width="50" height="40" as="geometry" />
        </mxCell>
        <mxCell id="e0XTj30T7ofdt_kGj74l-0" value="STATE_3" style="shape=swimlane;rotatable=0;align=center;verticalAlign=top;fontFamily=Lucida Console;startSize=30;fontSize=14;fontStyle=1;fontColor=#FAFAFA;fillColor=#545454;swimlaneFillColor=default;rounded=1;arcSize=15;absoluteArcSize=1;comic=0;STATESMITH_NOTES_VERTEX" vertex="1" parent="8-8oFy19M2xyFrtWDsz8-1">
          <mxGeometry x="40" y="200" width="240" height="90" as="geometry" />
        </mxCell>
        <mxCell id="e0XTj30T7ofdt_kGj74l-1" value="EV1 / print(&quot;I&#39;m on page2!&quot;);&#xa;" style="fontFamily=Lucida Console;align=left;verticalAlign=top;fillColor=none;gradientColor=none;strokeColor=none;rounded=0;spacingLeft=4;resizable=0;movable=0;deletable=0;rotatable=0;autosize=1;comic=0;" vertex="1" connectable="0" parent="e0XTj30T7ofdt_kGj74l-0">
          <mxGeometry y="30" width="240" height="30" as="geometry" />
        </mxCell>
      </root>
    </mxGraphModel>
  </diagram>
  <diagram id="b_zLE_53EtxpCoNrl-Dq" name="$notes template stuff">
    <mxGraphModel dx="1434" dy="844" grid="1" gridSize="10" guides="1" tooltips="1" connect="1" arrows="1" fold="1" page="1" pageScale="1" pageWidth="1600" pageHeight="900" math="0" shadow="0">
      <root>
        <mxCell id="0" />
        <mxCell id="1" parent="0" />
        <mxCell id="lfcCgU-5PhtY5pBJbQWW-1" value="$initial_state" style="shape=ellipse;aspect=fixed;fillColor=#000000;resizable=1;rotatable=1;noLabel=1;editable=1;comic=0;movable=1;deletable=1;locked=0;connectable=1;" vertex="1" parent="1">
          <mxGeometry x="107.5" y="230" width="25" height="25" as="geometry" />
        </mxCell>
        <mxCell id="lfcCgU-5PhtY5pBJbQWW-3" value="STATE_1" style="shape=swimlane;rotatable=0;align=center;verticalAlign=top;fontFamily=Lucida Console;startSize=30;fontSize=14;fontStyle=1;fontColor=#FAFAFA;fillColor=#545454;swimlaneFillColor=default;rounded=1;arcSize=15;absoluteArcSize=1;comic=0;STATESMITH_NOTES_VERTEX" vertex="1" parent="1">
          <mxGeometry x="60" y="310" width="120" height="90" as="geometry" />
        </mxCell>
        <mxCell id="lfcCgU-5PhtY5pBJbQWW-4" value="" style="fontFamily=Lucida Console;align=left;verticalAlign=top;fillColor=none;gradientColor=none;strokeColor=none;rounded=0;spacingLeft=4;resizable=0;movable=0;deletable=0;rotatable=0;autosize=1;comic=0;" vertex="1" connectable="0" parent="lfcCgU-5PhtY5pBJbQWW-3">
          <mxGeometry y="30" width="50" height="40" as="geometry" />
        </mxCell>
        <mxCell id="lfcCgU-5PhtY5pBJbQWW-6" value="&lt;span style=&quot;color: rgb(250, 250, 250); font-family: &amp;quot;Lucida Console&amp;quot;; font-size: 14px; font-weight: 700; text-wrap: nowrap;&quot;&gt;$STATEMACHINE : MySm&lt;/span&gt;" style="rounded=1;whiteSpace=wrap;html=1;fillColor=#1ba1e2;fontColor=#ffffff;strokeColor=#006EAF;" vertex="1" parent="1">
          <mxGeometry x="50" y="170" width="210" height="35" as="geometry" />
        </mxCell>
        <mxCell id="DasHsCyNp2hovQFe-t3G-1" value="Template stuff here" style="shape=note;strokeWidth=2;fontSize=14;size=20;whiteSpace=wrap;html=1;fillColor=#fff2cc;strokeColor=#d6b656;fontColor=#191900;align=left;spacingLeft=6;" vertex="1" parent="1">
          <mxGeometry x="50" y="80" width="380" height="40" as="geometry" />
        </mxCell>
      </root>
    </mxGraphModel>
  </diagram>
</mxfile>
